<svg xmlns="http://www.w3.org/2000/svg" viewBox="0 0 192 192" width="192" height="192">
  <defs>
    <linearGradient id="g" x1="0%" y1="0%" x2="100%" y2="100%">
      <stop offset="0%" stop-color="#2563eb"/>
      <stop offset="50%" stop-color="#4f46e5"/>
      <stop offset="100%" stop-color="#7c3aed"/>
    </linearGradient>
  </defs>
  <rect width="192" height="192" rx="42" fill="url(#g)"/>
  <path
    d="M150 92c0 7-1.2 13.8-3.4 20a60 60 0 0 1-54 26.5 60 60 0 0 1-20-3.4L46 146l10-26.6A60 60 0 0 1 52.6 100a60 60 0 0 1 26.5-54 60 60 0 0 1 20-3.4h3.6A60 60 0 0 1 150 99Z"
    fill="none" stroke="#fff" stroke-width="10" stroke-linecap="round" stroke-linejoin="round"/>
</svg>
